<svg xmlns="http://www.w3.org/2000/svg" width="48" height="48"><path fill-rule="evenodd" d="M24 0C10.751 0 0 10.751 0 24s10.751 24 24 24 24-10.751 24-24S37.249 0 24 0zm0 1c12.708 0 23 10.291 23 23S36.708 47 24 47 1 36.709 1 24 11.292 1 24 1zm4.488 10.004a9.771 9.771 0 0 0-9.342 8.13c-.164-.028-.328-.06-.494-.08a8.306 8.306 0 0 0-5.576 1.333 8.323 8.323 0 0 0-3.053 10.18l-1.011 4.83a.5.5 0 0 0 .629.583l4.29-1.238a8.328 8.328 0 0 0 10.344-2.344 8.281 8.281 0 0 0 1.276-2.392 9.763 9.763 0 0 0 7.678-.508l5.134 1.48a.5.5 0 0 0 .63-.582l-1.212-5.76a9.788 9.788 0 0 0-3.576-12.003 9.764 9.764 0 0 0-5.717-1.63zm.032.992v.002a8.767 8.767 0 0 1 5.132 1.467 8.782 8.782 0 0 1 3.155 10.922.5.5 0 0 0-.03.326.5.5 0 0 0 .004.023l1.06 5.053-4.448-1.285a.5.5 0 0 0-.059-.014.5.5 0 0 0-.166-.023.5.5 0 0 0-.225.06 8.765 8.765 0 0 1-7.12.514 8.334 8.334 0 0 0-1.036-6.045h9.707a.5.5 0 1 0 0-1H24.07c-.099-.119-.194-.24-.3-.353a8.298 8.298 0 0 0-3.649-2.278 8.778 8.778 0 0 1 8.398-7.37zm-5.061 4.002a.5.5 0 0 0 .05 1H34.49a.5.5 0 1 0 0-1H23.51a.5.5 0 0 0-.051 0zm0 3a.5.5 0 0 0 .05 1H34.49a.5.5 0 1 0 0-1H23.51a.5.5 0 0 0-.051 0zm-5.553 1a7.314 7.314 0 0 1 5.131 2.328 7.316 7.316 0 0 1 .445 9.461 7.32 7.32 0 0 1-9.263 1.983.5.5 60.003 0 0-.397-.036.5.5 0 0 0-.04.01l-3.62 1.045.863-4.127a.5.5 0 0 0 0-.01.5.5 60.003 0 0-.023-.334 7.315 7.315 0 0 1 2.627-9.1 7.306 7.306 0 0 1 4.277-1.22zm-4.447 4a.5.5 0 0 0 .05 1h8.985a.5.5 0 1 0 0-1H13.51a.5.5 0 0 0-.051 0zm13.783 1a.5.5 0 0 0 .051 1h2.404a.5.5 0 1 0 0-1h-2.404a.5.5 0 0 0-.05 0zm-13.783 2a.5.5 0 0 0 .05 1h8.985a.5.5 0 1 0 0-1H13.51a.5.5 0 0 0-.051 0zm-.008 3a.5.5 0 0 0 .051 1h4a.5.5 0 1 0 0-1h-4a.5.5 0 0 0-.05 0z" color="#000" font-family="sans-serif" font-weight="400" overflow="visible" style="line-height:normal;text-indent:0;text-align:start;text-decoration-line:none;text-decoration-style:solid;text-decoration-color:#000;text-transform:none;block-progression:tb;isolation:auto;mix-blend-mode:normal"/></svg>