<svg xmlns="http://www.w3.org/2000/svg" data-name="Layer 1" viewBox="0 0 64 64"><polygon points="32 23 33.5 21 32 15 30.5 21 32 23"/><path d="M55,36a1,1,0,0,0-1-1H33V28H43V2H21V28H31v7H10a1,1,0,0,0-1,1v8H2V62H18V44H11V37H31v7H24V62H40V44H33V37H53v7H46V62H62V44H55ZM12.5,50.5A2.5,2.5,0,0,1,10,53h2a2,2,0,0,1,2,2v5H6V55a2,2,0,0,1,2-2h2a2.5,2.5,0,1,1,2.5-2.5Zm22,0A2.5,2.5,0,0,1,32,53h2a2,2,0,0,1,2,2v5H28V55a2,2,0,0,1,2-2h2a2.5,2.5,0,1,1,2.5-2.5ZM26,26V18a3,3,0,0,1,3-3h3a3.5,3.5,0,1,1,3.5-3.5A3.5,3.5,0,0,1,32,15h3a3,3,0,0,1,3,3v8ZM56.5,50.5A2.5,2.5,0,0,1,54,53h2a2,2,0,0,1,2,2v5H50V55a2,2,0,0,1,2-2h2a2.5,2.5,0,1,1,2.5-2.5Z"/></svg>